<svg height="512" viewBox="0 0 64 64" width="512" xmlns="http://www.w3.org/2000/svg"><g id="application"><path d="m59 10h-21v-5a3.009 3.009 0 0 0 -3-3h-30a3.009 3.009 0 0 0 -3 3v54a3.009 3.009 0 0 0 3 3h30a3.009 3.009 0 0 0 3-3v-1h21a3.009 3.009 0 0 0 3-3v-42a3.009 3.009 0 0 0 -3-3zm-49-6h20v1a1 1 0 0 1 -1 1h-18a1 1 0 0 1 -1-1zm26 55a1 1 0 0 1 -1 1h-30a1 1 0 0 1 -1-1v-54a1 1 0 0 1 1-1h3v1a3.009 3.009 0 0 0 3 3h18a3.009 3.009 0 0 0 3-3v-1h3a1 1 0 0 1 1 1v5h-27a3.009 3.009 0 0 0 -3 3v42a3.009 3.009 0 0 0 3 3h27zm24-4a1 1 0 0 1 -1 1h-50a1 1 0 0 1 -1-1v-42a1 1 0 0 1 1-1h50a1 1 0 0 1 1 1z"/><path d="m34 22h-.07a6.725 6.725 0 0 0 .07-1 7.008 7.008 0 0 0 -7-7 6.659 6.659 0 0 0 -5.3 2.67 6.187 6.187 0 0 0 -2.7-.67 6 6 0 0 0 -6 6v.13a4 4 0 0 0 1 7.87h20a4 4 0 0 0 0-8zm0 6h-20a2 2 0 0 1 0-4 1 1 0 0 0 1-1v-1a4 4 0 0 1 4-4 4.454 4.454 0 0 1 2.43.82.979.979 0 0 0 .78.16 1.055 1.055 0 0 0 .65-.46 4.831 4.831 0 0 1 4.14-2.52 5 5 0 0 1 5 5 5.1 5.1 0 0 1 -.29 1.67.99.99 0 0 0 .94 1.33h1.35a2 2 0 0 1 0 4z"/><path d="m23 32h2v2h-2z"/><path d="m25 36h-2v8a1 1 0 0 0 1 1h16v-2h-15z"/><path d="m49 34h2v2h-2z"/><path d="m49 32h2v-11a1 1 0 0 0 -1-1h-12v2h11z"/><path d="m10 48h10v2h-10z"/><path d="m10 52h2v2h-2z"/><path d="m14 52h6v2h-6z"/><path d="m10 44h6v2h-6z"/><path d="m18 44h2v2h-2z"/><path d="m49 14h6v2h-6z"/><path d="m57 14h2v2h-2z"/><path d="m57 38h-14a1 1 0 0 0 -1 1v14a1 1 0 0 0 1 1h14a1 1 0 0 0 1-1v-14a1 1 0 0 0 -1-1zm-1 14h-12v-12h12z"/><path d="m54.45 45.11-6-3a1 1 0 0 0 -1.45.89v6a1 1 0 0 0 .47.85 1.014 1.014 0 0 0 .53.15 1.03 1.03 0 0 0 .45-.11l6-3a1 1 0 0 0 0-1.78zm-5.45 2.27v-2.76l2.76 1.38z"/></g></svg>