<svg id="Layer_1" enable-background="new 0 0 480 480" height="512" viewBox="0 0 480 480" width="512" xmlns="http://www.w3.org/2000/svg"><path d="m84 248.366h-76c-4.42 0-8-3.58-8-8s3.58-8 8-8h76c4.42 0 8 3.58 8 8s-3.58 8-8 8zm34.078 39h-64.078v-17c0-4.595-3.869-8.282-8.529-7.983-4.253.273-7.471 3.993-7.471 8.255v39.728c0 4.595 3.869 8.282 8.529 7.983 4.253-.273 7.471-3.993 7.471-8.255v-6.728h64.078c4.375 0 7.922-3.547 7.922-7.922 0-4.764-3.724-8.078-7.922-8.078zm78.303 80c-6.514 0-10.221 7.408-6.362 12.655 24.862 33.804 75.145 33.743 99.962 0 3.86-5.248.153-12.655-6.362-12.655zm160.789-12.17-6.363-6.368c-3.011-3.013-8.168-3.33-11.496.309-2.883 3.153-2.841 7.989.18 11.01l4.019 4.019v47.2c0 4.603 3.894 8.295 8.553 7.981 4.245-.286 7.447-4.006 7.447-8.26v-50.231c0-2.131-.84-4.16-2.34-5.66zm-216.589-6.178c-3.014-3.315-8.221-3.36-11.388-.19-6.517 6.522-8.703 7.859-8.703 12.029v50.51c0 4.595 3.869 8.282 8.529 7.983 4.253-.273 7.471-3.993 7.471-8.255v-46.928l4.019-4.019c2.857-2.858 3.261-7.623.072-11.13zm90.159-204.962c-5.866 5.846-5.877 15.354 0 21.21 5.831 5.851 15.374 5.857 21.21 0 5.847-5.847 5.868-15.342 0-21.21-5.86-5.86-15.33-5.881-21.21 0zm-26.17-26.161c-3.12 3.12-3.12 8.19.01 11.31 3.12 3.12 8.18 3.12 11.31 0 14.057-14.056 36.809-14.1 50.91 0 3.114 3.114 8.184 3.126 11.31 0 3.13-3.12 3.13-8.19 0-11.31-20.27-20.29-53.157-20.382-73.54 0zm103.24-29.699c-36.724-36.745-96.199-36.752-132.93 0-3.13 3.12-3.13 8.19 0 11.31 3.12 3.12 8.19 3.12 11.31 0 30.498-30.498 79.828-30.482 110.31 0 3.113 3.113 8.183 3.126 11.31 0 3.13-3.12 3.13-8.19 0-11.31zm164.19 144.17h-76c-4.42 0-8 3.58-8 8s3.58 8 8 8h76c4.42 0 8-3.58 8-8s-3.58-8-8-8zm-38.529 30.017c-4.253.273-7.471 3.993-7.471 8.255v16.728h-64.078c-4.375 0-7.922 3.547-7.922 7.922 0 4.763 3.724 8.078 7.922 8.078h64.078v7c0 4.595 3.869 8.282 8.529 7.983 4.253-.273 7.471-3.993 7.471-8.255v-39.728c0-4.595-3.869-8.283-8.529-7.983zm-109.397-3.017c5.572 0 9.437-5.553 7.502-10.778l-6.336-17.112c-5.79-15.62-20.86-26.11-37.51-26.11h-95.46c-16.65 0-31.72 10.49-37.51 26.11l-6.336 17.112c-1.935 5.225 1.931 10.778 7.502 10.778zm-182.074 24v28c0 22.091 17.909 40 40 40h116c22.091 0 40-17.909 40-40v-28c0-4.418-3.582-8-8-8h-180c-4.418 0-8 3.581-8 8z"/></svg>