<svg id="Layer_1" enable-background="new 0 0 480.032 480.032" height="512" viewBox="0 0 480.032 480.032" width="512" xmlns="http://www.w3.org/2000/svg"><path d="m240.032 375.31c-57.897 0-105-47.103-105-105v-89h-7c-4.418 0-8-3.582-8-8s3.582-8 8-8h42v-83c0-4.418 3.582-8 8-8s8 3.582 8 8v83h108v-83c0-4.418 3.582-8 8-8s8 3.582 8 8v83h42c4.418 0 8 3.582 8 8s-3.582 8-8 8h-201v89c0 49.075 39.925 89 89 89s89-39.925 89-89v-62c0-4.418 3.582-8 8-8s8 3.582 8 8v62c0 57.897-47.103 105-105 105zm-.006-52.998c2.935 0 5.76-1.621 7.162-4.424l24-48c2.659-5.318-1.22-11.578-7.155-11.578h-35.056l18.211-36.422c1.976-3.952.374-8.758-3.578-10.733-3.952-1.978-8.757-.374-10.733 3.577l-24 48c-2.659 5.318 1.22 11.578 7.155 11.578h35.056l-18.211 36.422c-2.667 5.333 1.245 11.58 7.149 11.58zm219.816-6.16c-4.131-1.566-8.751.509-10.318 4.641-28.369 74.727-94.912 129.011-173.66 141.668-14.587 2.347-27.832-8.922-27.832-23.701v-28.45h9c4.418 0 8-3.582 8-8s-3.582-8-8-8h-34c-4.418 0-8 3.582-8 8s3.582 8 8 8h9v28.45c0 24.627 22.067 43.409 46.371 39.498 84.383-13.563 155.685-71.724 186.079-151.787 1.568-4.13-.509-8.75-4.64-10.319zm8.671-33.562c-4.322-.931-8.575 1.815-9.506 6.134-.285 1.323-.582 2.644-.891 3.958-1.009 4.302 1.66 8.606 5.961 9.615 4.299 1.011 8.607-1.659 9.616-5.961.331-1.408.648-2.822.954-4.239.931-4.32-1.815-8.575-6.134-9.507zm-8.307-136.945c-1.763-4.052-6.477-5.908-10.527-4.145-4.052 1.763-5.907 6.477-4.145 10.527 12.274 28.212 18.498 58.251 18.498 89.282 0 4.418 3.582 8 8 8s8-3.582 8-8c0-33.241-6.67-65.427-19.826-95.664zm-356.946 273.075c-55.33-42.722-87.124-107.261-87.227-177.069-.229-153.832 153.191-264.248 300.235-211.037 4.154 1.505 8.741-.646 10.245-4.8 1.503-4.155-.646-8.742-4.8-10.245-84.29-30.503-182.739-12.476-251.391 56.278-103.185 103.337-90.59 271.709 23.16 359.537 3.5 2.702 8.524 2.052 11.221-1.443 2.7-3.498 2.054-8.521-1.443-11.221zm316.722-306.722s.001.007.001.001c5.861 5.862 5.862 15.35-.001 21.213-5.848 5.848-15.363 5.848-21.212 0-9.483-9.481-2.635-25.607 10.606-25.607 4.007 0 7.773 1.56 10.606 4.393zm26.164-14.848c3.124-3.124 3.125-8.189 0-11.314-20.322-20.322-53.215-20.325-73.539.001-3.124 3.124-3.124 8.189 0 11.313 3.124 3.123 8.189 3.124 11.314-.001 14.069-14.069 36.84-14.07 50.911.001 3.126 3.124 8.19 3.123 11.314 0zm-91.924-29.699c30.482-30.484 79.822-30.489 110.309 0 1.562 1.562 3.609 2.343 5.657 2.343 7.063 0 10.712-8.601 5.657-13.657-36.738-36.738-96.196-36.74-132.936 0-3.125 3.125-3.125 8.19 0 11.314 3.124 3.123 8.189 3.123 11.313 0z"/></svg>