<svg id="Layer_1" enable-background="new 0 0 480 480" height="512" viewBox="0 0 480 480" width="512" xmlns="http://www.w3.org/2000/svg"><path d="m480 117.171v254c0 4.418-3.582 8-8 8s-8-3.582-8-8v-254c0-13.234-10.767-24-24-24h-78c-13.233 0-24 10.766-24 24v254c0 13.234 10.767 24 24 24h78c4.418 0 8 3.582 8 8s-3.582 8-8 8h-78c-22.056 0-40-17.944-40-40v-254c0-22.056 17.944-40 40-40h78c22.056 0 40 17.943 40 40zm-105.561 131.159c-4.486.881-7.164 5.31-6.279 9.4.88 4.504 5.331 7.159 9.399 6.28 3.767-.738 6.44-4.061 6.44-7.84.001-5.081-4.686-8.833-9.56-7.84zm50 0c-4.462.876-7.169 5.286-6.279 9.4.869 4.448 5.273 7.171 9.399 6.28 3.767-.738 6.44-4.064 6.44-7.84.001-5.015-4.611-8.848-9.56-7.84zm-50 45c-7.059 1.386-8.708 10.644-2.88 14.49 5.259 3.542 12.44-.258 12.44-6.65.001-5.018-4.621-8.846-9.56-7.84zm50 0c-4.462.876-7.169 5.286-6.279 9.4.869 4.448 5.273 7.171 9.399 6.28 3.767-.738 6.44-4.064 6.44-7.84.001-5.015-4.611-8.848-9.56-7.84zm-56.439 52.841c0 6.439 7.222 10.171 12.439 6.65 4.125-2.717 4.83-8.699 1.221-12.31-4.999-4.997-13.66-1.487-13.66 5.66zm54.939-7.391c-5.961 2.486-6.634 10.572-1.38 14.04 5.987 4.032 13.741-1.457 12.28-8.21-.967-4.956-6.276-7.754-10.9-5.83zm13.061-171.609c0 19.299-15.701 35-35 35s-35-15.701-35-35 15.701-35 35-35 35 15.7 35 35zm-16 0c0-10.477-8.523-19-19-19s-19 8.523-19 19 8.523 19 19 19 19-8.524 19-19zm-155-2c-4.418 0-8 3.582-8 8v165c0 13.234-10.767 24-24 24h-193c-13.233 0-24-10.766-24-24v-193c0-13.234 10.767-24 24-24h49c4.418 0 8-3.582 8-8s-3.582-8-8-8h-49c-22.056 0-40 17.944-40 40v193c0 22.056 17.944 40 40 40h193c22.056 0 40-17.944 40-40v-165c0-4.419-3.582-8-8-8zm-192 50c-4.418 0-8 3.582-8 8s3.582 8 8 8h16v48c0 4.418 3.582 8 8 8s8-3.582 8-8v-48h16c4.418 0 8-3.582 8-8s-3.582-8-8-8zm76.849.646c-4.061 1.74-5.942 6.444-4.202 10.505l24 56c2.76 6.44 11.938 6.461 14.707 0l24-56c1.74-4.061-.142-8.764-4.202-10.505-4.059-1.74-8.764.14-10.505 4.202l-16.647 38.843-16.646-38.843c-1.742-4.06-6.442-5.943-10.505-4.202zm65.102-63.572c9.447 9.448 2.664 25.606-10.607 25.606-13.261 0-20.061-16.151-10.606-25.606 5.861-5.863 15.351-5.864 21.213 0zm26.163-14.849c3.124-3.124 3.124-8.189 0-11.314-20.322-20.323-53.214-20.325-73.54 0-3.124 3.124-3.124 8.189 0 11.314 3.125 3.124 8.189 3.125 11.314 0 14.068-14.07 36.842-14.071 50.911 0 3.128 3.126 8.192 3.121 11.315 0zm-103.238-41.013c-3.124 3.124-3.124 8.189 0 11.314 3.125 3.124 8.189 3.124 11.314 0 30.482-30.484 79.823-30.486 110.308 0 3.125 3.125 8.19 3.123 11.314 0 3.124-3.124 3.124-8.19 0-11.314-36.737-36.737-96.195-36.74-132.936 0z"/></svg>