<svg id="Layer_1" enable-background="new 0 0 480.165 480.165" height="512" viewBox="0 0 480.165 480.165" width="512" xmlns="http://www.w3.org/2000/svg"><path d="m400.738 349.657c-9.445 9.446-2.665 25.606 10.606 25.606 13.26 0 20.063-16.15 10.607-25.606-5.861-5.863-15.35-5.864-21.213 0zm47.377-26.163c3.124 3.124 3.124 8.189 0 11.314-3.124 3.123-8.188 3.126-11.314 0-14.068-14.069-36.842-14.07-50.911 0-3.125 3.125-8.189 3.124-11.314 0-3.124-3.124-3.124-8.189 0-11.314 20.321-20.321 53.214-20.326 73.539 0zm24.041-16.042c-2.048 0-4.095-.781-5.657-2.343-30.482-30.484-79.823-30.486-110.308 0-3.125 3.125-8.189 3.124-11.314 0-3.124-3.124-3.124-8.19 0-11.314 36.738-36.737 96.195-36.74 132.937 0 5.046 5.047 1.417 13.656-5.658 13.657zm-65.155 100.13c0 26.467-21.532 48-48 48h-259c-26.468 0-48-21.533-48-48v-242.491l-39.646 25.722c-3.706 2.405-8.66 1.349-11.065-2.357-2.405-3.707-1.35-8.661 2.356-11.065l186.436-120.961c23.502-15.248 53.87-15.248 77.372 0l46.547 30.2v-46.048c-4.418 0-8-3.582-8-8s3.582-8 8-8h85c4.418 0 8 3.582 8 8s-3.582 8-8 8h-1v54c0 4.418-3.582 8-8 8s-8-3.582-8-8v-54h-52v56.429l123.889 80.38c6.682 4.335 3.56 14.712-4.362 14.712-3.508 0 9.142 7.462-190.782-122.251-18.21-11.814-41.742-11.815-59.954 0l-130.791 84.858v252.872c0 17.645 14.355 32 32 32h190v-132.527c0-9.635-7.839-17.473-17.474-17.473h-87.053c-9.635 0-17.474 7.838-17.474 17.473v99.527c0 4.418-3.582 8-8 8s-8-3.582-8-8v-99.527c0-18.457 15.017-33.473 33.474-33.473h87.053c18.457 0 33.474 15.016 33.474 33.473v132.527h53c17.645 0 32-14.355 32-32 0-4.418 3.582-8 8-8s8 3.582 8 8zm-8-214c4.418 0 8 3.582 8 8v32.5c0 4.418-3.582 8-8 8s-8-3.582-8-8v-32.5c0-4.418 3.582-8 8-8z"/></svg>