<svg id="Layer_1" enable-background="new 0 0 480 480" height="512" viewBox="0 0 480 480" width="512" xmlns="http://www.w3.org/2000/svg"><path d="m480 301.5v72c0 22.056-17.944 40-40 40h-400c-22.056 0-40-17.944-40-40v-72c0-22.056 17.944-40 40-40h16v-206.5c0-16.266 13.234-29.5 29.5-29.5s29.5 13.234 29.5 29.5v184.5c0 4.418-3.582 8-8 8s-8-3.582-8-8v-184.5c0-7.444-6.056-13.5-13.5-13.5s-13.5 6.056-13.5 13.5v206.5h243.667c4.418 0 8 3.582 8 8s-3.582 8-8 8h-275.667c-13.233 0-24 10.766-24 24v72c0 13.234 10.767 24 24 24h400c13.233 0 24-10.766 24-24v-72c0-13.234-10.767-24-24-24h-67c-4.418 0-8-3.582-8-8v-214.5c0-16.266 13.234-29.5 29.5-29.5s29.5 13.234 29.5 29.5v184.5c0 4.418-3.582 8-8 8s-8-3.582-8-8v-184.5c0-7.444-6.056-13.5-13.5-13.5s-13.5 6.056-13.5 13.5v206.5h59c22.056 0 40 17.944 40 40zm-406 28c-4.418 0-8 3.582-8 8s3.582 8 8 8h21.333c4.418 0 8-3.582 8-8s-3.582-8-8-8zm56.333 0c-4.418 0-8 3.582-8 8s3.582 8 8 8h56.667c4.418 0 8-3.582 8-8s-3.582-8-8-8zm-12.333 109h-56c-4.418 0-8 3.582-8 8s3.582 8 8 8h56c4.418 0 8-3.582 8-8s-3.582-8-8-8zm300 0h-56c-4.418 0-8 3.582-8 8s3.582 8 8 8h56c4.418 0 8-3.582 8-8s-3.582-8-8-8zm-167.049-262.926c9.357 9.357 2.811 25.606-10.607 25.606-13.262 0-20.062-16.151-10.607-25.606 2.834-2.833 6.601-4.394 10.607-4.394 6.738.001 10.607 4.394 10.607 4.394zm26.163-14.849c3.125-3.124 3.125-8.19 0-11.314-20.323-20.323-53.215-20.324-73.539 0-3.125 3.124-3.125 8.189 0 11.314 3.124 3.124 8.189 3.124 11.313 0 14.07-14.07 36.84-14.071 50.912 0 3.124 3.124 8.19 3.124 11.314 0zm-91.924-29.699c30.484-30.484 79.822-30.486 110.309 0 1.562 1.562 3.609 2.343 5.657 2.343 7.063 0 10.711-8.603 5.657-13.657-36.737-36.736-96.197-36.74-132.936 0-3.125 3.124-3.125 8.189 0 11.314 3.123 3.125 8.189 3.125 11.313 0z"/></svg>