<svg id="Layer_1" enable-background="new 0 0 480.165 480.165" height="512" viewBox="0 0 480.165 480.165" width="512" xmlns="http://www.w3.org/2000/svg"><path d="m421.951 133.348c5.86-5.86 5.863-15.349.001-21.213-5.86-5.862-15.352-5.866-21.215-.001-5.86 5.86-5.863 15.351 0 21.214 5.86 5.861 15.352 5.863 21.214 0zm14.849-36.063c-14.069-14.069-36.839-14.071-50.911.001-3.125 3.123-8.189 3.123-11.314 0-3.124-3.125-3.124-8.189 0-11.314 20.324-20.322 53.216-20.325 73.54.001 5.056 5.056 1.404 13.656-5.657 13.656-2.049 0-4.096-.782-5.658-2.344zm-91.924-29.697c-3.124-3.124-3.124-8.189 0-11.314 36.74-36.738 96.195-36.739 132.937 0 5.056 5.058 1.405 13.657-5.657 13.657-2.048 0-4.095-.781-5.657-2.343-30.48-30.484-79.823-30.489-110.308 0-3.126 3.123-8.19 3.123-11.315 0zm135.124 71.525v236.333c0 22.056-17.944 40-40 40h-400c-22.056 0-40-17.944-40-40v-274c0-22.056 17.944-40 40-40h264.333c4.418 0 8 3.582 8 8s-3.582 8-8 8h-264.333c-13.233 0-24 10.767-24 24v274c0 13.233 10.767 24 24 24h400c13.233 0 24-10.767 24-24v-236.333c0-4.418 3.582-8 8-8s8 3.582 8 8zm-389.395 200.333h226.791c7.222 0 13.097-5.875 13.097-13.097v-157.016c0-4.418 3.582-8 8-8s8 3.582 8 8v157.017c0 16.044-13.053 29.097-29.097 29.097h-226.791c-16.044 0-29.097-13.053-29.097-29.097v-175.807c0-16.044 13.053-29.097 29.097-29.097h208c4.418 0 8 3.582 8 8s-3.582 8-8 8h-208c-7.222 0-13.097 5.875-13.097 13.097v175.807c0 7.221 5.875 13.096 13.097 13.096zm344.395-152c0 4.418-3.582 8-8 8h-24c-4.418 0-8-3.582-8-8s3.582-8 8-8h24c4.418 0 8 3.582 8 8zm0 40c0 4.418-3.582 8-8 8h-24c-4.418 0-8-3.582-8-8s3.582-8 8-8h24c4.418 0 8 3.582 8 8zm-325 216c0 4.418-3.582 8-8 8h-60c-4.418 0-8-3.582-8-8s3.582-8 8-8h60c4.418 0 8 3.582 8 8zm336 0c0 4.418-3.582 8-8 8h-60c-4.418 0-8-3.582-8-8s3.582-8 8-8h60c4.418 0 8 3.582 8 8z"/></svg>