<svg id="Capa_1" enable-background="new 0 0 512 512" height="512" viewBox="0 0 512 512" width="512" xmlns="http://www.w3.org/2000/svg"><g><path d="m484.446 98.086h-106.38c-4.15 0-7.515 3.364-7.515 7.515s3.365 7.515 7.515 7.515h106.38c6.906 0 12.524 5.618 12.524 12.524v57.042h-84.88c-26.557-34.138-68.012-56.142-114.513-56.142s-87.956 22.004-114.513 56.142h-168.035v-57.042c0-6.906 5.618-12.524 12.524-12.524h320.453c4.15 0 7.515-3.364 7.515-7.515s-3.365-7.515-7.515-7.515h-138.748v-6.578c0-12.43-10.113-22.544-22.544-22.544h-34.278c-12.431 0-22.544 10.114-22.544 22.544v6.578h-18.182v-6.578c0-12.43-10.113-22.544-22.544-22.544h-34.279c-12.431 0-22.544 10.114-22.544 22.544v6.578h-4.79c-15.192 0-27.553 12.361-27.553 27.554v289.842c0 15.193 12.361 27.554 27.554 27.554h105.236c4.15 0 7.515-3.364 7.515-7.515s-3.365-7.515-7.515-7.515h-105.236c-6.906 0-12.524-5.618-12.524-12.524v-29.988h192.912c24.688 19.466 55.829 31.095 89.635 31.095 33.356 0 64.757-11.351 89.805-31.095h109.588v29.988c0 6.906-5.618 12.524-12.524 12.524h-321.598c-4.15 0-7.515 3.364-7.515 7.515s3.364 7.515 7.515 7.515h321.598c15.193 0 27.554-12.361 27.554-27.554v-289.842c0-15.193-12.361-27.554-27.554-27.554zm-339.525-6.578c0-4.144 3.371-7.515 7.515-7.515h34.278c4.144 0 7.515 3.371 7.515 7.515v6.578h-49.308zm-97.548 0c0-4.144 3.371-7.515 7.515-7.515h34.279c4.144 0 7.515 3.371 7.515 7.515v6.578h-49.309zm-32.344 106.203h157.785c-7.579 12.755-13.262 26.761-16.649 41.632-17.727.049-32.134 14.483-32.134 32.221 0 17.737 14.407 32.171 32.133 32.22 5.783 25.394 18.252 48.269 35.447 66.68h-176.582zm138.52 90.812c-8.197-1.304-14.488-8.401-14.488-16.958 0-8.558 6.292-15.655 14.488-16.959-.651 5.565-.997 11.222-.997 16.959 0 5.736.346 11.393.997 16.958zm14.033-16.958c0-71.679 58.316-129.995 129.995-129.995 71.68 0 129.995 58.316 129.995 129.995 0 7.851-.704 15.713-2.093 23.367-.741 4.083 1.969 7.994 6.052 8.736 4.076.735 7.994-1.969 8.735-6.053 1.549-8.537 2.335-17.301 2.335-26.05 0-26.954-7.4-52.208-20.262-73.853h74.631v172.754h-93.275c11.365-12.204 20.752-26.479 27.507-42.448 1.616-3.823-.172-8.232-3.994-9.848-3.823-1.616-8.231.172-9.849 3.993-20.401 48.233-67.418 79.398-119.783 79.398-71.679-.001-129.994-58.317-129.994-129.996z"/><path d="m297.577 161.694c-60.583 0-109.871 49.288-109.871 109.871s49.288 109.871 109.871 109.871 109.871-49.288 109.871-109.871c0-60.584-49.288-109.871-109.871-109.871zm0 204.712c-52.296 0-94.841-42.546-94.841-94.841s42.546-94.842 94.841-94.842 94.841 42.546 94.841 94.842-42.545 94.841-94.841 94.841z"/><path d="m297.577 226.711c-24.731 0-44.852 20.121-44.852 44.853s20.121 44.852 44.852 44.852c24.732 0 44.853-20.12 44.853-44.852s-20.121-44.853-44.853-44.853zm0 74.677c-16.444 0-29.823-13.379-29.823-29.823 0-16.445 13.379-29.824 29.823-29.824 16.445 0 29.823 13.379 29.823 29.824 0 16.444-13.379 29.823-29.823 29.823z"/><path d="m71.185 294.352c-15.146 0-27.469 12.322-27.469 27.469 0 15.146 12.322 27.468 27.469 27.468 15.146 0 27.468-12.322 27.468-27.468.001-15.147-12.322-27.469-27.468-27.469zm0 39.907c-6.859 0-12.439-5.58-12.439-12.438 0-6.859 5.58-12.439 12.439-12.439s12.439 5.58 12.439 12.439c0 6.858-5.58 12.438-12.439 12.438z"/><path d="m459.577 168.902c11.582 0 21.004-9.423 21.004-21.004s-9.422-21.004-21.004-21.004h-28.207c-11.582 0-21.004 9.423-21.004 21.004s9.422 21.004 21.004 21.004zm-34.182-21.004c0-3.294 2.68-5.974 5.975-5.974h28.207c3.295 0 5.975 2.68 5.975 5.974 0 3.295-2.68 5.975-5.975 5.975h-28.207c-3.295 0-5.975-2.68-5.975-5.975z"/><path d="m60.249 140.383c-4.15 0-7.515 3.364-7.515 7.515s3.364 7.515 7.515 7.515h35.15c4.15 0 7.515-3.364 7.515-7.515s-3.365-7.515-7.515-7.515z"/><path d="m134.518 140.383c-4.15 0-7.515 3.364-7.515 7.515s3.364 7.515 7.515 7.515h23.628c4.15 0 7.515-3.364 7.515-7.515s-3.365-7.515-7.515-7.515z"/></g></svg>