<svg id="Capa_1" enable-background="new 0 0 512 512" height="512" viewBox="0 0 512 512" width="512" xmlns="http://www.w3.org/2000/svg"><path d="m56.5 83c14.612 0 26.5-11.888 26.5-26.5s-11.888-26.5-26.5-26.5-26.5 11.888-26.5 26.5 11.888 26.5 26.5 26.5zm0-38c6.341 0 11.5 5.159 11.5 11.5s-5.159 11.5-11.5 11.5-11.5-5.159-11.5-11.5 5.159-11.5 11.5-11.5zm399-15c-14.612 0-26.5 11.888-26.5 26.5s11.888 26.5 26.5 26.5 26.5-11.888 26.5-26.5-11.888-26.5-26.5-26.5zm0 38c-6.341 0-11.5-5.159-11.5-11.5s5.159-11.5 11.5-11.5 11.5 5.159 11.5 11.5-5.159 11.5-11.5 11.5zm-399 414c14.612 0 26.5-11.888 26.5-26.5s-11.888-26.5-26.5-26.5-26.5 11.888-26.5 26.5 11.888 26.5 26.5 26.5zm0-38c6.341 0 11.5 5.159 11.5 11.5s-5.159 11.5-11.5 11.5-11.5-5.159-11.5-11.5 5.159-11.5 11.5-11.5zm448-47.5c4.143 0 7.5-3.357 7.5-7.5v-351.5c0-20.678-16.822-37.5-37.5-37.5h-437c-20.678 0-37.5 16.822-37.5 37.5v437c0 20.678 16.822 37.5 37.5 37.5h437c20.678 0 37.5-16.822 37.5-37.5v-55.5c0-4.143-3.357-7.5-7.5-7.5s-7.5 3.357-7.5 7.5v55.5c0 12.406-10.094 22.5-22.5 22.5h-437c-12.406 0-22.5-10.094-22.5-22.5v-437c0-12.406 10.094-22.5 22.5-22.5h437c12.406 0 22.5 10.094 22.5 22.5v351.5c0 4.143 3.357 7.5 7.5 7.5zm-164.361-145.5c6.893 0 12.5-5.607 12.5-12.5v-55c0-6.893-5.607-12.5-12.5-12.5h-25c-6.893 0-12.5 5.607-12.5 12.5v55c0 6.893 5.607 12.5 12.5 12.5zm-22.5-65h20v50h-20zm-145.778-15c-6.893 0-12.5 5.607-12.5 12.5v55c0 6.893 5.607 12.5 12.5 12.5h25c6.893 0 12.5-5.607 12.5-12.5v-55c0-6.893-5.607-12.5-12.5-12.5zm22.5 65h-20v-50h20zm-3.236 196.112h129.75c61.337 0 111.237-49.9 111.237-111.237v-129.75c0-61.337-49.9-111.237-111.237-111.237h-64.746c-4.143 0-7.5 3.357-7.5 7.5s3.357 7.5 7.5 7.5h64.746c53.065 0 96.237 43.172 96.237 96.237v129.75c0 53.065-43.172 96.237-96.237 96.237h-129.75c-53.065 0-96.237-43.172-96.237-96.237v-129.75c0-53.065 43.172-96.237 96.237-96.237h35.004c4.143 0 7.5-3.357 7.5-7.5s-3.357-7.5-7.5-7.5h-35.004c-61.337 0-111.237 49.9-111.237 111.237v129.75c0 61.337 49.9 111.237 111.237 111.237zm264.375 49.888c14.612 0 26.5-11.888 26.5-26.5s-11.888-26.5-26.5-26.5-26.5 11.888-26.5 26.5 11.888 26.5 26.5 26.5zm0-38c6.341 0 11.5 5.159 11.5 11.5s-5.159 11.5-11.5 11.5-11.5-5.159-11.5-11.5 5.159-11.5 11.5-11.5zm-239.5-140.5v25c0 6.893 5.607 12.5 12.5 12.5h55c6.893 0 12.5-5.607 12.5-12.5v-25c0-6.893-5.607-12.5-12.5-12.5h-55c-6.893 0-12.5 5.607-12.5 12.5zm15 2.5h50v20h-50z"/></svg>