<?xml version="1.0" encoding="iso-8859-1"?>
<!-- Generator: Adobe Illustrator 19.0.0, SVG Export Plug-In . SVG Version: 6.00 Build 0)  -->
<svg version="1.1" id="Capa_1" xmlns="http://www.w3.org/2000/svg" xmlns:xlink="http://www.w3.org/1999/xlink" x="0px" y="0px"
	 viewBox="0 0 512 512" style="enable-background:new 0 0 512 512;" xml:space="preserve">
<g>
	<g>
		<g>
			<path d="M512,228.397c-0.022-0.783-0.181-1.555-0.47-2.283c-0.07-0.188-0.141-0.363-0.227-0.542
				c-0.314-0.698-0.744-1.337-1.273-1.889l-0.009-0.007c-0.411-0.412-0.873-0.768-1.375-1.061l-67.546-39.21
				c-5.259-2.773-11.571-2.664-16.73,0.29c-0.957,0.429-2.038,0.495-3.039,0.184l-50.627-29.389l-0.03-0.019l-0.032-0.017
				l-46.586-27.042c1.124-1.608,1.721-3.525,1.711-5.487c-0.091-3.592-2.113-6.855-5.29-8.533L252.928,74.18
				c-2.123-1.227-4.745-1.207-6.849,0.053L63.991,183.486l-0.011,0.004L3.283,219.91c-0.423,0.264-0.816,0.575-1.17,0.927
				c-0.046,0.044-0.102,0.072-0.147,0.116c-0.532,0.553-0.965,1.194-1.279,1.895c-0.078,0.166-0.139,0.331-0.203,0.505
				c-0.283,0.721-0.437,1.486-0.456,2.261l-0.015,0.072L0,283.548c0.037,0.27,0.091,0.537,0.162,0.8
				c0.043,0.465,0.136,0.924,0.276,1.37c0.146,0.394,0.33,0.773,0.549,1.131c0.203,0.378,0.444,0.735,0.718,1.066
				c0.308,0.336,0.649,0.639,1.02,0.904c0.197,0.2,0.408,0.387,0.63,0.559l62.691,36.375c5.294,2.733,11.605,2.632,16.809-0.269
				c0.961-0.384,2.02-0.447,3.02-0.178l106.914,62.079c-1.122,1.604-1.721,3.516-1.717,5.474c0.09,3.597,2.108,6.867,5.283,8.559
				l62.73,36.401c0.161,0.093,0.341,0.131,0.508,0.21c0.184,0.088,0.365,0.16,0.558,0.231c1.479,0.622,3.146,0.623,4.625,0.001
				c0.205-0.075,0.406-0.161,0.603-0.257c0.183-0.088,0.38-0.132,0.556-0.237l242.77-145.665c0.205-0.164,0.399-0.342,0.581-0.53
				c1.451-1.057,2.375-2.69,2.533-4.478c0.067-0.253,0.119-0.509,0.155-0.768L512,228.443l-0.004-0.017L512,228.397z
				 M414.573,195.535c5.263,2.763,11.572,2.654,16.737-0.289c0.956-0.416,2.027-0.482,3.026-0.184l57.671,33.48l-167.225,100.34
				l-0.025,0.009l-20.251,12.153c-0.95,0.419-2.021,0.48-3.012,0.17l-53.862-31.257c1.129-1.609,1.729-3.529,1.717-5.493
				c-0.094-3.589-2.116-6.848-5.289-8.526l-13.133-7.623c13.167,2.648,26.564,3.979,39.994,3.972
				c8.694,0.136,17.355-0.336,25.93-1.376c-3.533,0.812-6.979,2.104-10.226,3.909c-5.722,2.906-9.448,8.656-9.763,15.066
				c0.3,5.988,3.795,11.353,9.151,14.046c5.287,2.846,11.22,4.279,17.224,4.158c6.747,0.092,13.397-1.604,19.276-4.914
				c5.721-2.911,9.446-8.661,9.764-15.073c-0.3-5.986-3.796-11.349-9.152-14.039c-6.154-3.095-12.912-4.441-19.592-4.089
				c22.08-3.476,43.466-10.807,63.138-21.773c26.711-16.026,41.329-37.25,41.164-59.763c-0.102-6.609-1.502-13.134-4.12-19.203
				L414.573,195.535z M293.56,306.371c3.794-2.067,8.062-3.11,12.382-3.026c3.619-0.104,7.205,0.713,10.421,2.375
				c1.783,1.033,2.434,2.053,2.441,2.48c0.007,0.592-0.849,2-3.224,3.421c-7.076,3.79-15.522,4.031-22.803,0.651
				c-1.789-1.033-2.441-2.053-2.441-2.48C290.329,309.193,291.185,307.792,293.56,306.371z M363.908,166.127
				c19.52,11.329,30.336,26.388,30.454,42.408c0.125,17.296-12.493,34.829-34.625,48.112
				c-46.921,28.151-121.441,29.967-166.105,4.046c-19.526-11.329-30.342-26.395-30.454-42.408
				c-0.125-17.296,12.493-34.836,34.625-48.112c27.117-15.129,57.742-22.844,88.79-22.368
				C313.509,147.179,340.135,153.489,363.908,166.127z M249.605,87.831l60.066,34.868c-1.123,1.607-1.722,3.52-1.717,5.48
				c0.091,3.287,1.827,6.308,4.621,8.041c-41.709-5.232-88.23,2.318-121.707,22.4c-26.711,16.026-41.329,37.25-41.164,59.763
				c0.165,9.882,3.143,19.513,8.583,27.765l-25.188-14.62c-5.259-2.787-11.579-2.683-16.743,0.276
				c-0.957,0.42-2.032,0.485-3.033,0.184l-52.85-30.68L249.605,87.831z M255.73,420.291l-48.586-28.197
				c1.107-1.591,1.701-3.483,1.704-5.421c-0.064-3.611-2.078-6.903-5.263-8.605l-111.02-64.454
				c-5.253-2.716-11.523-2.592-16.664,0.329c-0.992,0.27-2.029,0.33-3.046,0.178l-59.381-34.454l0.01-42.28l52.595,30.53
				c5.26,2.781,11.578,2.677,16.743-0.276c0.955-0.43,2.033-0.495,3.033-0.184l106.934,62.066c-1.128,1.607-1.728,3.524-1.717,5.487
				c0.089,3.592,2.112,6.856,5.289,8.533l59.368,34.467V420.291z M262.408,366.305l-55.237-32.072
				c1.117-1.604,1.714-3.513,1.711-5.467c-0.089-3.597-2.111-6.867-5.289-8.553L92.619,255.798
				c-5.263-2.763-11.572-2.654-16.737,0.29c-0.955,0.419-2.029,0.482-3.026,0.178l-52.849-30.678l27.432-16.46
				c0.386,0.328,0.794,0.631,1.219,0.907l57.901,33.612c5.259,2.77,11.57,2.661,16.73-0.29c0.958-0.418,2.033-0.481,3.033-0.178
				l106.934,62.066c-1.128,1.607-1.728,3.524-1.717,5.487c0.089,3.592,2.112,6.856,5.289,8.533l52.851,30.674L262.408,366.305z
				 M498.502,282.509l-229.298,137.58v-42.148l42.231-25.343l0.026-0.011l187.06-112.243L498.502,282.509z"/>
			<path d="M134.342,213.943c5.718-2.908,9.443-8.653,9.763-15.059c-0.301-5.989-3.796-11.355-9.151-14.053
				c-11.545-5.791-25.205-5.508-36.5,0.757c-5.722,2.91-9.447,8.661-9.763,15.072c0.299,5.985,3.795,11.346,9.151,14.033
				c5.285,2.854,11.219,4.291,17.224,4.171C121.814,218.957,128.465,217.259,134.342,213.943z M102.165,200.561
				c-0.006-0.592,0.849-1.993,3.224-3.421c7.08-3.773,15.517-4.016,22.802-0.658c1.783,1.039,2.441,2.059,2.441,2.493
				c0.007,0.592-0.849,1.993-3.224,3.414c-7.075,3.793-15.523,4.035-22.803,0.651C102.816,202.009,102.165,200.989,102.165,200.561z
				"/>
			<path d="M209.355,299.673l-24.125-14.007c-2.083-1.217-4.658-1.228-6.751-0.028c-2.093,1.2-3.385,3.427-3.388,5.839
				s1.285,4.642,3.375,5.847h0l24.125,14.007c3.219,1.868,7.343,0.772,9.211-2.447C213.671,305.665,212.575,301.541,209.355,299.673
				z"/>
			<path d="M156.277,268.864l-24.125-14c-3.219-1.868-7.343-0.772-9.211,2.447c-1.868,3.219-0.772,7.343,2.447,9.211h0l24.125,14
				c3.219,1.868,7.343,0.772,9.211-2.447C160.592,274.856,159.496,270.732,156.277,268.864z"/>
			<path d="M354.601,286.5c-1.787,0.072-3.472,0.851-4.683,2.167c-2.322,2.687-2.072,6.737,0.564,9.118s6.691,2.218,9.128-0.366
				s2.362-6.641-0.167-9.133C358.13,287.07,356.388,286.428,354.601,286.5z"/>
			<path d="M296.671,180.838L296.671,180.838l38.599,22.401c3.218,1.854,7.329,0.754,9.192-2.458c1.864-3.212,0.777-7.327-2.429-9.2
				l-38.599-22.401c-3.218-1.854-7.329-0.754-9.193,2.458C292.379,174.85,293.465,178.965,296.671,180.838z"/>
		</g>
	</g>
</g>
<g>
</g>
<g>
</g>
<g>
</g>
<g>
</g>
<g>
</g>
<g>
</g>
<g>
</g>
<g>
</g>
<g>
</g>
<g>
</g>
<g>
</g>
<g>
</g>
<g>
</g>
<g>
</g>
<g>
</g>
</svg>
