<?xml version="1.0" encoding="iso-8859-1"?>
<!-- Generator: Adobe Illustrator 19.0.0, SVG Export Plug-In . SVG Version: 6.00 Build 0)  -->
<svg version="1.1" id="Capa_1" xmlns="http://www.w3.org/2000/svg" xmlns:xlink="http://www.w3.org/1999/xlink" x="0px" y="0px"
	 viewBox="0 0 480 480" style="enable-background:new 0 0 480 480;" xml:space="preserve">
<g>
	<g>
		<path d="M312,96H168c-22.08,0.026-39.974,17.92-40,40v304c0.026,22.08,17.92,39.974,40,40h144c22.08-0.026,39.974-17.92,40-40V136
			C351.974,113.92,334.08,96.026,312,96z M336,440c0,13.255-10.745,24-24,24H168c-13.255,0-24-10.745-24-24v-8h192V440z M336,416
			H144V160h192V416z M336,144H144v-8c0-13.255,10.745-24,24-24h144c13.255,0,24,10.745,24,24V144z"/>
	</g>
</g>
<g>
	<g>
		<path d="M328,64c-4.418,0-8,3.582-8,8s3.582,8,8,8c22.08,0.026,39.974,17.92,40,40c0,4.418,3.582,8,8,8s8-3.582,8-8
			C383.965,89.087,358.913,64.035,328,64z"/>
	</g>
</g>
<g>
	<g>
		<path d="M328,32c-4.418,0-8,3.582-8,8s3.582,8,8,8c39.746,0.044,71.956,32.254,72,72c0,4.418,3.582,8,8,8s8-3.582,8-8
			C415.943,71.423,376.577,32.057,328,32z"/>
	</g>
</g>
<g>
	<g>
		<path d="M328,0c-4.418,0-8,3.582-8,8s3.582,8,8,8c57.41,0.066,103.934,46.59,104,104c0,4.418,3.582,8,8,8s8-3.582,8-8
			C447.925,53.757,394.243,0.075,328,0z"/>
	</g>
</g>
<g>
	<g>
		<path d="M152,64c-30.913,0.035-55.965,25.087-56,56c0,4.418,3.582,8,8,8s8-3.582,8-8c0.026-22.08,17.92-39.974,40-40
			c4.418,0,8-3.582,8-8S156.418,64,152,64z"/>
	</g>
</g>
<g>
	<g>
		<path d="M152,32c-48.577,0.057-87.943,39.423-88,88c0,4.418,3.582,8,8,8s8-3.582,8-8c0.044-39.746,32.254-71.956,72-72
			c4.418,0,8-3.582,8-8S156.418,32,152,32z"/>
	</g>
</g>
<g>
	<g>
		<path d="M152,0C85.755,0.071,32.071,53.755,32,120c0,4.418,3.582,8,8,8s8-3.582,8-8C48.066,62.59,94.59,16.066,152,16
			c4.418,0,8-3.582,8-8S156.418,0,152,0z"/>
	</g>
</g>
<g>
	<g>
		<rect x="304" y="176" width="16" height="48"/>
	</g>
</g>
<g>
	<g>
		<rect x="272" y="192" width="16" height="32"/>
	</g>
</g>
<g>
	<g>
		<rect x="240" y="208" width="16" height="16"/>
	</g>
</g>
<g>
</g>
<g>
</g>
<g>
</g>
<g>
</g>
<g>
</g>
<g>
</g>
<g>
</g>
<g>
</g>
<g>
</g>
<g>
</g>
<g>
</g>
<g>
</g>
<g>
</g>
<g>
</g>
<g>
</g>
</svg>
